/* XPM */
static char *_7150b9443f647ae9a45c029d0f17bf2SN6Ft3Aw2L9Zm1Ys[] = {
/* columns rows colors chars-per-pixel */
"60 60 93 2 ",
"   c None",
".  c #AE0C0C",
"X  c #B30B0B",
"o  c #BB0A0A",
"O  c #CD0707",
"+  c #C30909",
"@  c #CB0808",
"#  c #D40707",
"$  c #DC0606",
"%  c #D30F0F",
"&  c #DC0B0B",
"*  c #E30505",
"=  c #EB0303",
"-  c #E20D0D",
";  c #E80909",
":  c #F30202",
">  c #FE0000",
",  c #F40B0B",
"<  c #FF0C0C",
"1  c #EB1414",
"2  c #E51D1D",
"3  c #F21414",
"4  c #FF1313",
"5  c #F51D1D",
"6  c #FF1C1C",
"7  c #DF2323",
"8  c #F52121",
"9  c #FF2323",
"0  c #F22A2A",
"q  c #FF2B2B",
"w  c #ED3636",
"e  c #FE3434",
"r  c #FF3F3F",
"t  c #FE3939",
"y  c #FF4242",
"u  c #FF4444",
"i  c #FF4545",
"p  c #FA4848",
"a  c #FF4848",
"s  c #FF4A4A",
"d  c #FF4B4B",
"f  c #FF4D4D",
"g  c #FF4E4E",
"h  c #FF4F4F",
"j  c #FF5151",
"k  c #FF5252",
"l  c #FF5353",
"z  c #FF5555",
"x  c #FF5656",
"c  c #FF5757",
"v  c #FF5858",
"b  c #FF595A",
"n  c #FF5B5B",
"m  c #FF5C5D",
"M  c #FF5E5E",
"N  c #FF5F5F",
"B  c #FE6161",
"V  c #FE6262",
"C  c #FE6363",
"Z  c #FE6464",
"A  c #FE6869",
"S  c #FE6969",
"D  c #FE6A6A",
"F  c #FE6B6C",
"G  c #FE6C6C",
"H  c #FE6D6E",
"J  c #FE7172",
"K  c #FE7374",
"L  c #FE7676",
"P  c #FE797A",
"I  c #FE7C7C",
"U  c #FD7E7E",
"Y  c #FD8181",
"T  c #FD8283",
"R  c #FD8384",
"E  c #FD8889",
"W  c #FD8E8F",
"Q  c #FD8F90",
"!  c #FD9495",
"~  c #FD9596",
"^  c #FD999A",
"/  c #FC9C9D",
"(  c #FC9D9F",
")  c #FC9EA0",
"_  c #FCA4A6",
"`  c #FCAFB1",
"'  c #FCB5B7",
"]  c #FBBABC",
"[  c #FBBDBF",
"{  c #FBBEC0",
"}  c #FBC7C9",
"|  c #FADADD",
" . c #FAE5E8",
/* pixels */
"                                                                                                                        ",
"                                                                                                                        ",
"                                                                                                                        ",
"                                                                                                                        ",
"                                                                                                                        ",
"                                                                                                                        ",
"                                                                                                                        ",
"                                                                                                                        ",
"                                                                                                                        ",
"                                                                                                                        ",
"                                                                                                                        ",
"                                        . o o + O                             > > > > >                                 ",
"                                      . . o o + @ @                         > > > > > > >                               ",
"                                      X . o o @ # #                       > < > < > < < <                               ",
"                                    X o o + @ $ $ * =                   4 6 6 6 6 6 6 6 9 e                             ",
"                                . X o o + @ # * = : : > >             > 4 6 q e t e t t r i g j                         ",
"                              . . X o + + # * = > > > > > >         > > 4 9 t s s s s d g g j j z                       ",
"                              X X X o @ # $ ; , < 4 < 4 < <       : > > 4 q y j b V D G Z n z g s                       ",
"                            X o o o @ # # - 1 5 9 9 9 9 9 5 1   $ = : > 4 q r z D I ! ! T G b s r q                     ",
"                        . X o o + @ @ $ * 1 8 0 t t t t t 0 7 % # = : > 4 q r z L ! ' ] ( U N s t 6 > >                 ",
"                      . . X X o @ # $ $ = 3 0 r j g g g p w 7 @ # = = > 4 q r b T ` |  .] W V i q 6 > >                 ",
"                      . . . o + @ O $ * = 1 5 e r r r r t 0 2 & $ = : > 4 q r z P / { } _ T N u q 6 > > >               ",
"                      . . X o + @ # $ * = ; 5 9 q q q q 9 5 3 ; = = : > 4 q r z D T ^ ( E K b u q 6 > > >               ",
"                      . . . o o + # # * = : , < 4 4 4 4 4 < , : : > > > 4 q y j N D K L F V z u q 6 < > >               ",
"                      . . X o + @ # $ * = = : : > > > > > > > > > > > > 4 q r g g g j g g g g y q 6 > > >               ",
"                      . . X o o @ O # $ * = : > > > > > > > > > > > > > < 6 q r t t t r t t t e 6 4 > > >               ",
"                      X . X X + + O # # $ * = : > > > > > > > > > > > > < 4 6 9 9 9 9 9 9 9 9 6 4 < > > >               ",
"                      . . . o + @ @ O O # $ = : > > > > > > > > > > > > > > < < 4 < < < < 4 4 < < > > > >               ",
"                      . . . o o @ + @ O O $ * : > > > > > > > > > > > > > > > > > > > > > > : > > > > >                 ",
"                        . . o o + + + @ O # * = : > > > > > > > > > > > > > > > > > > > > : = : : : >                   ",
"                            X o o o + + @ # $ = : : : > > > > > > > > > > > > > > > > > : = * $ * =                     ",
"                              . X o o + @ # $ = = : > > > > > > > > > > > > > > > > > > = * # # $                       ",
"                              X . X o + + # $ $ * = : > > > > > > > > > > > > > > > : : = $ # @                         ",
"                                X X X o + + @ $ * = = > > > > > > > > > > > > > > = = = * $ #                           ",
"                                    X X X + + @ # * = > > > > > > > > > > > > > : = * $ $ #                             ",
"                                      . . X o @ @ $ = : > > > > > > > > > > > > = * # O @                               ",
"                                      . . X o + @ # * = : > : > > > > > > > : : = * # O                                 ",
"                                          X o o o @ # $ * = : > > > > > > = = * $ $ #                                   ",
"                                            X X X o @ # $ * : > > > > > : = * $ # $                                     ",
"                                              . X X + + # $ = > > > > > : * # O @                                       ",
"                                              . . X o + + # $ = : = : : = * $ @                                         ",
"                                                  X o X + @ # $ * * * * $ $ #                                           ",
"                                                    X X X + @ # # # # # # #                                             ",
"                                                    . . X o + + @ @ @ @ @                                               ",
"                                                      X X o + @ @ @ @ #                                                 ",
"                                                          + @ @ @ @ @                                                   ",
"                                                            @ @ @ @                                                     ",
"                                                            @ @ @                                                       ",
"                                                              @                                                         ",
"                                                                                                                        ",
"                                                                                                                        ",
"                                                                                                                        ",
"                                                                                                                        ",
"                                                                                                                        ",
"                                                                                                                        ",
"                                                                                                                        ",
"                                                                                                                        ",
"                                                                                                                        ",
"                                                                                                                        ",
"                                                                                                                        "
};
