/* XPM */
static char *abd8a38da93846e7cd1b7c195fff0da6tZJRixFiDK5su8w1[] = {
/* columns rows colors chars-per-pixel */
"60 60 163 2 ",
"   c None",
".  c #394365",
"X  c #3A4466",
"o  c #3C4668",
"O  c #3D4769",
"+  c #3F496B",
"@  c #3F4A6B",
"#  c #6B707F",
"$  c #6D717E",
"%  c #8B7E6F",
"&  c #8C7E6E",
"*  c #7F867F",
"=  c #E9A43D",
"-  c #EBA43C",
";  c #E9A53F",
":  c #EAA53E",
">  c #EBA63E",
",  c #ECA63D",
"<  c #ECA73D",
"1  c #EDA73D",
"2  c #FFAD31",
"3  c #FFAD32",
"4  c #FEAC33",
"5  c #FFAF32",
"6  c #FFAF33",
"7  c #FEAE34",
"8  c #FFAE34",
"9  c #F1A93B",
"0  c #FFB031",
"q  c #FFB131",
"w  c #FFB032",
"e  c #BE9355",
"r  c #B69059",
"t  c #90806C",
"y  c #91806C",
"u  c #92806C",
"i  c #998368",
"p  c #80867F",
"a  c #8E917C",
"s  c #8F917C",
"d  c #91937B",
"f  c #91947B",
"g  c #BAB371",
"h  c #C7954F",
"j  c #CD994D",
"k  c #CD9A4D",
"l  c #D99E47",
"z  c #C79750",
"x  c #C89750",
"c  c #C7A85E",
"v  c #E9BC51",
"b  c #EBBD50",
"n  c #C7BC6E",
"m  c #C7BD6E",
"M  c #C7BE6F",
"N  c #C8BD6E",
"B  c #FFC948",
"V  c #FEC849",
"C  c #FFCA48",
"Z  c #D9CA6A",
"A  c #D9CB6A",
"S  c #DFD068",
"D  c #E9D766",
"F  c #EBD965",
"G  c #E9D967",
"H  c #EBD866",
"J  c #EBDA67",
"K  c #F4DF63",
"L  c #F0DC64",
"P  c #F3DE64",
"I  c #FEE761",
"U  c #FFE960",
"Y  c #FFE861",
"T  c #FFEA60",
"R  c #FFEB60",
"E  c #FEE963",
"W  c #FFEA62",
"Q  c #FFEB62",
"!  c #576685",
"~  c #576686",
"^  c #586786",
"/  c #596887",
"(  c #5F6B85",
")  c #5C6A87",
"_  c #5E6C87",
"`  c #556589",
"'  c #566689",
"]  c #576789",
"[  c #55678B",
"{  c #56678A",
"}  c #53668C",
"|  c #586789",
" . c #576889",
".. c #57688A",
"X. c #586888",
"o. c #596888",
"O. c #596988",
"+. c #596889",
"@. c #596989",
"#. c #5A6988",
"$. c #5B6988",
"%. c #5B6A88",
"&. c #5C6B89",
"*. c #5C6B8A",
"=. c #5D6C8B",
"-. c #5E6D8B",
";. c #5F6E8D",
":. c #666E82",
">. c #606B85",
",. c #696F80",
"<. c #606F8D",
"1. c #657285",
"2. c #677385",
"3. c #647086",
"4. c #6A7080",
"5. c #6B7382",
"6. c #6D7481",
"7. c #6A7584",
"8. c #6B7684",
"9. c #6D7784",
"0. c #6D7884",
"q. c #61708E",
"w. c #647391",
"e. c #647491",
"r. c #657592",
"t. c #667592",
"y. c #687794",
"u. c #697895",
"i. c #6B7895",
"p. c #6C7996",
"a. c #6D7B97",
"s. c #7989A4",
"d. c #7A8AA5",
"f. c #7B8BA6",
"g. c #8390A9",
"h. c #8390AA",
"j. c #8291AB",
"k. c #8593AC",
"l. c #8594AD",
"z. c #8595AF",
"x. c #8695AF",
"c. c #8796B0",
"v. c #8797B0",
"b. c #8797B1",
"n. c #8898B1",
"m. c #8998B2",
"M. c #8999B2",
"N. c #8A9AB3",
"B. c #8A9AB4",
"V. c #8B9BB4",
"C. c #8C9CB5",
"Z. c #8C9DB5",
"A. c #8D9DB5",
"S. c #8D9DB6",
"D. c #B0BCD0",
"F. c #B0BDD0",
"G. c #B4C0D3",
"H. c #C0CBDC",
"J. c #C1CCDD",
"K. c #C2CDDD",
"L. c #C2CDDE",
"P. c #EDEEF1",
"I. c white",
/* pixels */
"                                                                                                                    P.I.",
"      X X X X X X X X @ x.C.C.N.V.V.V.V.C.G.J.H.H.H.H.H.H.H.H.H.H.H.H.H.H.H.H.F.C.C.V.V.V.V.V.V.g.O X X X X X X X X     ",
"      X X X X X X X X @ x.C.N.C.V.V.V.V.V.F.J.H.H.H.H.H.H.H.H.H.H.H.H.H.H.H.J.F.V.V.V.V.V.V.V.V.j.+ . X X X X X X X     ",
"      . . . . . . . . @ x.N.C.N.V.V.V.V.V.G.J.J.J.J.J.J.J.J.J.J.J.J.J.J.J.J.J.F.N.V.V.V.V.V.V.V.j.o . . . . . . . .     ",
"      i.i.i.i.i.y.p.i.p.N.V.V.V.V.V.V.V.V.k.g.g.h.h.h.h.k.h.h.h.g.g.g.g.h.h.g.x.V.V.V.V.V.V.V.V.v.p.i.i.i.i.i.i.i.i.    ",
"      S.S.S.S.S.S.S.S.S.N.V.V.V.V.V.V.V.S.w.~ ~ ^ ^ ^ ^ ~ ^ ^ ^ / / ^ ^ ^ ^ ! y.C.V.V.V.V.V.V.V.V.S.S.S.S.S.S.S.S.S.    ",
"      V.V.V.V.V.V.V.V.V.V.V.V.V.V.V.V.V.V.e.#.#.#.#.#.#.#.#.#.#./ / *./ / / | i.S.V.V.V.V.V.V.V.V.V.V.V.V.V.V.V.V.V.    ",
"      V.V.V.V.V.V.V.V.V.v.v.v.n.v.v.v.v.v.e.#.#.#.#.#.#.#.#.#.#.*./ / / *./ ^ y.v.v.v.v.v.v.v.v.v.V.V.V.V.V.V.V.V.V.    ",
"      V.V.V.V.V.V.V.V.N.w.q.q.q.q.q.q.<.<.*.#.#.#.#.#.#.#.#.#.#.#.#.#.#.#.#.#.*.<.<.<.<.q.<.q.<.e.N.V.V.V.V.V.V.V.V.    ",
"      V.V.N.V.V.V.V.N.v.=.#.#.#.#.#.#.#.#.#.#.#.#.#.#.#.#.#.#.#.#.#.#.#.#.#.#.#.*.#.*.#.*./ *.| <.N.V.V.V.V.V.V.V.V.    ",
"      S.S.S.S.S.C.S.S.n.=.#.#.#.#.#.#.#.#.#.#.#.#.#.#.#.#.#.#.#.#.#.#.#.#.#.#.#.#.#.#.#./ ) #.#.<.V.C.C.S.C.S.S.S.S.    ",
"      d.f.d.d.d.d.d.d.d.*.#.#.#.#.#.#.#.#.#.#.#.#.#.#.#.#.#.#.#.#.#.#.#.#.#.#.#.#.#.#.#.#.#.#.#.&.d.f.d.f.f.d.f.d.d.    ",
"      #.#.#.#.#.#.#.#.#.#.#.#.#.#.#.#.#.#.#.#.#.#.#.#.#.#.#.#.#.#.#.#.#.#.#.#.#.#.#.#.#.#.#.#.#.#.#.#.#.#.#.#.#.#.#.    ",
"      #.#.#.#.#.#.#.#.#.#.#.#.#.#.#.#.#.#.#.#.#.#.#.#.#.#.#.#.#.#.#.#.#.#.#.#.#.#.#.#.#.#.#.#.#.#.#.#.#.#.#.#.#.#.#.    ",
"      #.#.#.#.#.#.#.#.#.#.#.#.#.#.#.#.#.#.#.#.#.#.#.#.#.#.#.#.#.#.#.#.#.#.#.#.#.#.#.#.#.#.#.#.#.#.#.#.#.#.#.#.#.#.#.    ",
"      #.#.#.#.#.#.#.#.#.#.#.#.#.#.#.#.#.#.#.#.#.#.#.#.#.#.#.#.#.#.#.#.#.#.#.#.#.#.#.#.#.#.#.#.#.#.#.#.#.#.#.#.#.#.#.    ",
"      #.#.#.#.#.#.#.#.#.#.#.#.#.#.#.#.#.#.#.#.#.#.#.#.#.#.#.#.#.#.#.#.#.#.#.#.#.#.#.#.#.#.#.#.#.#.#.#.#.#.#.#.#.#.#.    ",
"      #.#.#.#.#.#.#.#.#.#.#.#.#.#.#.#.#.#.#.| / | #.#./ | / #.#.#.#.#.#.#.[ #.{ #.#.#.#.#.#.#.#.#.#.#.#.#.#.#.#.#.#.    ",
"      #.#.#.#.#.#.#.#.#.#.#.#.#.#.#.#.#.#.2.8.8.8.8.8.8.7.7.5.,.$ $ $ $ 5.$ $ :.#.#.#.#.#.#.#.#.#.#.#.#.#.#.#.#.#.#.    ",
"      #.#.#.#.#.#.#.#.#.#.#.#.#.#.#.#.#./ N F D D D D D F F v = > > < l l 9 > z { #.#.#.#.#.#.#.#.#.#.#.#.#.#.#.#.#.    ",
"      #.#.#.#.#.#.#.#.#.#.#.#.#.#.#.#.#.#.Z R Y Y I Y Y Y Y C 7 7 w 7 w w w 3 k { #.#.#.#.#.*.#.#.#.#.#.#.#.#.#.#.#.    ",
"      #.#.#.#.#.#.#.#.#.| { { | | | | { { Z R Y R R Y Y Y Q C 3 w w w 3 3 w w k } ..[ #.........#.#.#.#.#.#.#.#.#.#.    ",
"      #.#.#.#.#.#.#.#.&.d f f f f f f f s g m N n n m m m m c h z z z z z z x r t t t t t t t t & ) #.#.#.#.#.#.#.#.    ",
"      #.#.#.#.#.#.#./ 2.L I I I I I I I Y * | / #./ #.#.#.#.#.#.#.#.#.#.#.#...& w 7 7 7 7 7 7 7 > ) #.#.#.#.#.#.#.#.    ",
"      #.#.#.#.#.#.#.#.1.L Y I I I I I I Y p | #.#.#.#.#.#.#.#.#.#.#.#.#.#.#.{ & w 7 7 7 7 7 7 7 > >.#.#.#.#.#.#.#.#.    ",
"      #.#.#.#.#.#.#.#.1.L I I I I I I I Y p { #.#.#.#.#.#.#.#.#.#.#.#.#.#.#.{ & w 7 7 7 7 7 7 7 > >.#.#.#.#.#.#.#.#.    ",
"      #.#.#.#.#.#.#.#.1.K I I I I I I I Y p { #.#.#.#.#.#.#.#.#.#.#.#.#.#.#...& w 7 7 7 7 7 7 7 > >.) #.#.#.#.#.#.#.    ",
"      #.#.#.#.#.#.#.#.1.K I I I I I I I Y p | #.#.#.#.#.#.#.#.#.#.#.#.#.#.#.{ % w 7 7 7 7 7 7 7 , >.) / #.#.#.#.#.#.    ",
"      #.#.#.#.#.#.#.#.1.P I I I I I I I Y * { ^ | #.| #.| / #.| #.#.#.#.| | [ & w 7 7 7 7 7 7 7 > >.#.#.#.#.#.#.#.#.    ",
"      #.#.#.#.#.#.#.#.1.P I I I I I I I Y s 8.9.9.9.9.9.9.0.9.$ $ $ 4.$ $ $ 5.i w 7 7 7 7 7 7 7 > >.#.#.#.#.#.#.#.#.    ",
"      #.#.#.#.#.#.#./ 2.P I I I I I I I I L F F F F F F F F b - < < l = > > > 9 7 7 7 7 7 7 7 3 > >.#.#.#.#.#.#.#.#.    ",
"      #.#.#.#.#.#.#.#.2.P I I I I I I I I Y I Y Y Y Y Y Y Y B 2 w w q w w 3 7 7 7 7 7 7 7 7 7 3 , >.#.#.#.#.#.#.#.#.    ",
"      #.#.#.#.#.#.#.#.1.L Y Y I I I I I I I I I I I I I I E V 4 7 7 7 7 7 7 7 7 7 7 7 7 7 7 7 7 , >.) *.^ *.^ *.^ *.    ",
"      #.#.#.#.#.#.#.#.1.L Y I I I I I I I I I I I I I I I E V 4 7 7 7 7 7 7 7 7 7 7 7 7 7 7 7 7 > >.) ^ *.^ *.^ *.^     ",
"      #.#.#.#.#.#.#.#.2.L I I I I I I I I I I I I I I I I E V 4 7 7 7 7 7 7 7 7 7 7 7 7 7 7 7 7 > >.*.^ ^ *.^ *.#.#.    ",
"      #.#.#.#.#.#.#.#.2.K I I I I I I I I I I I I I I I I E V 4 7 7 7 7 7 7 7 7 7 7 7 7 7 7 7 7 > >.^ *.*.^ *.^ #.#.    ",
"      #.#.#.#.#.#.#.#.1.K Y I I I I I I I I I I I I I I I Y V 4 7 7 7 7 7 7 7 7 7 7 7 7 7 7 7 7 , >.) ^ ^ *.^ *.#.#.    ",
"      #.#.#.#.#.#.#.#.1.L Y I I I I I I I I I I I I I I Y E V 4 7 7 7 7 7 7 7 7 7 7 7 7 7 7 7 7 , >.^ *.*.^ *.^ #.#.    ",
"      #.#.#.#.#.#.#.#.2.L I I I I I I I I I I I I I I I I E C 4 7 7 7 7 7 7 7 7 7 7 7 7 7 7 7 7 , >.^ *.^ *.^ *.#.#.    ",
"      #.#.#.#.#.#.#.#.>.I Y Y Y Y Y Y Y Y Y Y Y Y Y Y Y Y Y C 7 7 7 3 w w 7 w 7 7 w 7 w 7 w 7 w > >.*.^ *.^ *.^ #.#.    ",
"      #.#.#.#.#.#.#.#.3.S G D D D D D D D D D D D F D F F F v = = > 9 l l = 9 l l 9 = l 9 = l 9 l ) / *.^ *.^ *.#.#.    ",
"      #.#.#.#.#.#.#.#.#.7.7.7.7.8.8.8.8.8.8.9.7.7.7.7.7.7.7.5.,.4.$ $ ,.$ $ $ 5.$ $ # ,.$ $ $ $ 5.#.*.^ *.^ *.^ #.#.    ",
"      #.#.#.#.#.#.#.#.#.{ #.#.#.#.| | #./ #.| #.#.| #.| #.{ #.#.#.#.#.#.>.*.#.#.*.#.#.#.#.#.*.*.#.#.#.#.^ *.^ *.#.#.    ",
"      #.#.#.#.#.#.#.#.#.#.#.#.#.#.#.#.#.#.#./ #.#.#.#.#.#.#.#.#.#.#.#.) ) ) #.#./ *.#.#.#./ / ) #.#.#.#.*.^ *.^ #.#.    ",
"      #.#.#.#.#.#.#.#.#.#.#.#.#.#.#.#.#.#.#.#.#.#.#.#.#.#.#.#.#.#.#.#.#.#.#.#.#.#.#.#.#.#.#.#.#.#.#.#.#.#.#.#.#.#.#.    ",
"      #.#.#.#.#.#.#.#.#.#.#.#.#.#.#.#.#.#.#.#.#.#.#.#.#.#.#.#.#.#.#.#.#.#.#.#.#.#.#.#.#.#.#.#.#.#.#.#.#.#.#.#.#.#.#.    ",
"      #.#.#.#.#.#.#.#.#.#.#.#.#.#.#.#.#.#.#.#.#.#.#.#.#.#.#.#.#.#.#.#.#.#.#.#.#.#.#.#.#.#.#.#.#.#.#.#.#.#.#.#.#.#.#.    ",
"      #.#.#.#.#.#.#.#.#.#.#.#.#.#.#.#.#.#.#.#.#.#.#.#.#.#.#.#.#.#.#.#.#.#.#.#.#.#.#.#.#.#.#.#.#.#.#.#.#.#.#.#.#.#.#.    ",
"      d.d.d.d.f.f.f.f.s.&.#.#.#.#.#.#.#.#.#.#.#.#.#.#.#.#.#.#.#.#.#.#.#.#.#.#.#.#.#.#.#.#.#.#.#.&.f.f.f.f.f.f.f.d.f.    ",
"      S.S.S.S.S.V.V.S.N.&.#.#.#.#.#.#.#.#.#.#.#.#.#.#.#.#.#.#.#.#.#.#.#.#.#.#.#.#.#.#.#.#.#.#.#.<.V.V.S.S.V.V.S.V.S.    ",
"      V.V.V.V.V.V.V.V.N.=.#.#.#.#.#.#.#.#.#.#.#.#.#.#.#.#.#.#.#.#.#.#.#.#.#.#.#.#.#.#.#.#.#.#.#.=.N.N.V.V.V.V.V.V.V.    ",
"      V.V.V.V.V.V.V.V.v.e.q.q.q.q.q.q.q.q.&.#.#.#.#.#.#.#.#.#.#.#.#.#.#.#.#.#.=.q.q.q.q.q.q.q.q.e.S.V.V.V.V.V.V.V.V.    ",
"      V.V.V.V.V.V.V.V.V.v.v.v.v.v.v.v.v.v.e.#.#.#.#.#.#.#.#.#.#.#.#.#.#.#.#.#.y.v.v.v.v.v.v.v.v.v.V.V.V.V.V.V.V.V.V.    ",
"      V.V.V.V.V.V.V.V.V.V.V.V.V.V.V.V.V.V.r.#.#.#.#.#.#.#.#.#.#.#.#.#.#.#.#.#.y.S.V.V.V.V.V.V.V.V.V.V.V.V.V.V.V.V.V.    ",
"      S.S.S.S.S.S.S.S.V.V.V.V.V.V.V.V.V.S.e.#.#.#.#.#.#.#.#.#.#.#.#.#.#.#.#.| i.V.V.V.V.V.V.V.V.V.S.S.S.S.S.S.S.S.S.    ",
"      i.i.i.i.i.i.i.i.a.N.V.V.V.V.V.V.N.S.e.{ #.#.#.#.#.#.#.#.#.#.#.#.#.#./ / i.S.V.V.V.V.V.V.V.v.p.i.i.i.i.i.i.i.i.    ",
"      . . . . . . . . + x.V.V.V.V.V.V.V.S.e./ #.#.#.#.#.#.#.#.#.#.#.#.#.#.#./ i.V.V.V.V.V.V.V.V.g.X X X X . . . . .     ",
"      X X X X X X X X + x.V.V.V.V.V.V.V.S.e./ #.#.#.#.#.#.#.#.#.#.#.#.#.#.#./ i.V.V.V.V.V.V.V.V.j.+ X X X X X X X X     ",
"      X X X X X X X X + x.V.V.V.N.S.V.V.S.e./ #.#.#.#.#.#.#.#.#.#.#.#.#.#.#./ i.S.V.V.V.V.V.V.V.g.O X X X X X X X X     ",
"                                                                                                                        "
};
