/* XPM */
static char *d41ad8e6752a49a6b98abb14ec86a63dImIZpgels0VJn86P[] = {
/* columns rows colors chars-per-pixel */
"60 60 200 2 ",
"   c None",
".  c #070808",
"X  c #0D0E0E",
"o  c #0F1010",
"O  c #111010",
"+  c #191616",
"@  c #1C1B1B",
"#  c #1E1719",
"$  c #23000F",
"%  c #240312",
"&  c #2B0414",
"*  c #240D16",
"=  c #280916",
"-  c #2D0E1B",
";  c #300516",
":  c #360618",
">  c #380718",
",  c #3B0919",
"<  c #360919",
"1  c #241619",
"2  c #2E1019",
"3  c #221E1E",
"4  c #2E1D1E",
"5  c #33101B",
"6  c #3C121E",
"7  c #301D1D",
"8  c #2A221F",
"9  c #26211D",
"0  c #241F20",
"q  c #2B1E22",
"w  c #2B2322",
"e  c #232322",
"r  c #312426",
"t  c #3D242C",
"y  c #362C2A",
"u  c #3A2C2C",
"i  c #342928",
"p  c #36322C",
"a  c #3B342D",
"s  c #3E2E30",
"d  c #3B3333",
"f  c #3E3C3C",
"g  c #45091D",
"h  c #4A0B1E",
"j  c #510D1E",
"k  c #47111B",
"l  c #52161F",
"z  c #42221F",
"x  c #4A0E21",
"c  c #530F20",
"v  c #4C1927",
"b  c #4C1D29",
"n  c #461724",
"m  c #551322",
"M  c #5B1422",
"N  c #541C2D",
"B  c #531B27",
"V  c #601521",
"C  c #631923",
"Z  c #6C1D25",
"A  c #711F26",
"S  c #422522",
"D  c #41262D",
"F  c #4D252D",
"G  c #41282F",
"H  c #5D2524",
"J  c #51252E",
"K  c #48302A",
"L  c #42312F",
"P  c #4B2F39",
"I  c #452A32",
"U  c #5C2C36",
"Y  c #413434",
"T  c #433D36",
"R  c #403C3B",
"E  c #493938",
"W  c #493437",
"Q  c #52343C",
"!  c #513034",
"~  c #6A282B",
"^  c #752126",
"/  c #782427",
"(  c #7C2528",
")  c #7F2B2B",
"_  c #722827",
"`  c #643238",
"'  c #7A3B3A",
"]  c #763A34",
"[  c #4D413D",
"{  c #56413E",
"}  c #7F493B",
"|  c #573741",
" . c #543E41",
".. c #5C3A44",
"X. c #593441",
"o. c #6A3845",
"O. c #474040",
"+. c #4A4142",
"@. c #544543",
"#. c #564A43",
"$. c #5A4C44",
"%. c #574F4F",
"&. c #5D4D4B",
"*. c #5E4548",
"=. c #575047",
"-. c #595047",
";. c #5C524A",
":. c #5D5555",
">. c #62474A",
",. c #6C444C",
"<. c #664B4D",
"1. c #6A494D",
"2. c #684A43",
"3. c #7E4E41",
"4. c #6D5146",
"5. c #60544C",
"6. c #6C4F51",
"7. c #674E52",
"8. c #714A51",
"9. c #744752",
"0. c #665351",
"q. c #6B5454",
"w. c #695856",
"e. c #635B5A",
"r. c #6C5C5B",
"t. c #635853",
"y. c #755256",
"u. c #765559",
"i. c #7B565A",
"p. c #745A5A",
"a. c #7D595E",
"s. c #756263",
"d. c #796967",
"f. c #74696A",
"g. c #7A6767",
"h. c #7E706E",
"j. c #842727",
"k. c #852B2A",
"l. c #892D2B",
"z. c #852827",
"x. c #8B322F",
"c. c #84302C",
"v. c #8E3631",
"b. c #8A3E39",
"n. c #833C3A",
"m. c #913B33",
"M. c #974338",
"N. c #99463A",
"B. c #9D4C3E",
"V. c #A04F3F",
"C. c #A2513F",
"Z. c #843F40",
"A. c #8B4343",
"S. c #924844",
"D. c #865244",
"F. c #8A5041",
"G. c #995243",
"H. c #815B5E",
"J. c #80575D",
"K. c #945555",
"L. c #925F5F",
"P. c #A25342",
"I. c #A65949",
"U. c #A45F50",
"Y. c #A56456",
"T. c #825D62",
"R. c #846265",
"E. c #84676A",
"W. c #8B6A6D",
"Q. c #8A676A",
"!. c #936565",
"~. c #8F6D70",
"^. c #866E70",
"/. c #837372",
"(. c #8B7474",
"). c #8C7D7B",
"_. c #957B7C",
"`. c #997C7D",
"'. c #927476",
"]. c #A5736B",
"[. c #A87D73",
"{. c #8D817F",
"}. c #AA867F",
"|. c #928684",
" X c #9D8585",
".X c #948886",
"XX c #968B89",
"oX c #9B8C8B",
"OX c #9C9493",
"+X c #9E9999",
"@X c #A48B8C",
"#X c #A08586",
"$X c #A88F90",
"%X c #AB9494",
"&X c #AD9896",
"*X c #AC9C9B",
"=X c #A7999A",
"-X c #ADA6A5",
";X c #AFA8A8",
":X c #B1AAAA",
/* pixels */
"                                                                                                                        ",
"                                                                                                                        ",
"                                                                                                                        ",
"                                                                                                                        ",
"                                                                                                                        ",
"                                                                                                                        ",
"                                          P.P.P.P.I.P.m.k.l./ c                                                         ",
"                                        P.P.P.P.P.P.N.m.k.( Z h g                                                       ",
"                                      P.P.P.P.G.P.M.x.l.j.M x h h h                                                     ",
"                                      P.P.P.P.V.M.v.k.k.j.^ M h g g <                                                   ",
"                                      P.P.V.V.N.x.k.k.k.k.l./ M h h ; %                                                 ",
"                                  P.P.P.N.x.x.x.k.k.k.k.k.k.j.( C h & %                                                 ",
"                                  P.V.n._ H H ~ ' Z.n.} ] k.l.l.( C < $ %                                               ",
"                                  P.M.M 6 8 w L 6.J.i.0.>.] ) ) j.( k % % %                                             ",
"                                  P.n.m 5 w E <.u.a.p.q.#.K z z B l h < & %                                             ",
"                                  G.M.m 5 r 0.~.~.W.W.p.#.T y 9 4 6 g g & %                                             ",
"                                  P.M.c 5 y d.$X$X$X@Xd.5.p.>.i 9 7 6 g & % %                                           ",
"                                  M.) x S [ /.&X&X%X%X X(.R.q.[ p 9 5 ; % % %                                           ",
"                                  c.^ x F 5.{.%X%X%X%X&X@XT.4.$.T 9 + $ % % %                                           ",
"                                      h F 5.).%X%X%X%X&X#Xo.J $.T 9 * $ % % %                                           ",
"                                      C ` -.t.s.'.`._.Q.9.N v { [ 9 * $ % % %                                           ",
"                                      l.] $.p y >.i.9.U h h J $.[ 8 * $ % %                                             ",
"                                        2.=.p 4 b N N x x ! @.$.T 8 1                                                   ",
"                                        ;.#.p 8 l V M V C ! { $.T w 1                                                   ",
"                                      =.=.=.L z _ k.j.k._ M b #.T 4 * %                                                 ",
"                                      =.4.3.M.' k.l.k.^ M h B #.Y * % % %                                               ",
"                                      4.D.P.P.V.x.l.k.C h g v Q D ; & % % %                                             ",
"                                  =.4.G.G.P.P.B.x.k.j.C h h h x x g & % % % %                                           ",
"                                  3.F.P.P.V.N.m.l.j.C c g h h h h h , : % % %                                           ",
"                                  Y.U.I.P.V.m.z.k.A c c c x g h h h g , & % % %                                         ",
"                                  &X}.U.P.V.m.k.k.j.( ( A c g h h g : & % % % % %                                       ",
"                                    %X}.[.].S.k.k.k.l.l.k.A M x h h & % % - t G D                                       ",
"                                      -X;X*XK.k.k.k.k.k.k.k.A c g g ; % = D &.0.5.                                      ",
"                                      *X*X%XK.k.j.k.k.k.k.x.( j > & $ - W *.0.q.6.                                      ",
"                                      %X@X`.L.A.x.k.z.z.k.A Z o.X.P t I <.r.6.1.,.                                      ",
"                                      %X_.T.^.Q.n.k.l.x.) M U E.)./.r.<.u.u.,.,.,.                                      ",
"                                      &X`.a.@.@.H.!.!.!.Q.T.7.+.f  .%.r.  J.y.8.,.                                      ",
"                                       X^.*.0 e :.h.f.f.f.f.%.@ . o p +.    i.y.8.                                      ",
"                                  %X XQ. .1 O O @ 3 3 @ 3 3 @ O X o + + O u i.J.u.8.,.                                  ",
"                                  _.'.T.W O X X X X X X X X X X o o X X o 3 y.R.i.8.,.                                  ",
"                                  a.a.6.Y O X O o O O O o o o O O O O O o X     i.8.,.                                  ",
"                                  T.<.i # O o O O O o o o o O O X O O O O o O                                           ",
"                                  ..s O X O O O o O O O o o O O O O O O o O O X                                         ",
"                                  O O o O o X O o O o O o o O X O O O O O O o O O                                       ",
"                                O o X X X X X X o O O O X O O O X O r t + X o O O                                       ",
"                                o o e f d r r w O o o O O O O O + q P Q r # O O O                                       ",
"                                      +X{.u.u.>.q o O X O o X O q X.....| Q                                             ",
"                                        =XoX_./.r.T + X O O o O 1   s.s.7.>.                                            ",
"                                          -XOX.X.Xe.@ X O o O o     oX{.f.r.                                            ",
"                                          -XOX.X      O O O O       .X|.).h.w.                                          ",
"                                          ;XOX|.        o O o         .X.X/.w.                                          ",
"                                          OXXX|.          O O           .X/.w.#.                                        ",
"                                          f f.XX                          f.t.d O                                       ",
"                                        . O f e.                          r Y w O                                       ",
"                                      O O O + +                         O O O + O                                       ",
"                                                                                                                        ",
"                                                                                                                        ",
"                                                                                                                        ",
"                                                                                                                        ",
"                                                                                                                        "
};
