/* XPM */
static char *_3d6521c30774cb4bd52215fd33bfd96kLMjpDGCA1xbdTu9[] = {
/* columns rows colors chars-per-pixel */
"60 60 67 1 ",
"  c #190301",
". c #1A0401",
"X c #1C0402",
"o c #1C0502",
"O c #1E0502",
"+ c #1E0703",
"@ c #200502",
"# c #210503",
"$ c #230603",
"% c #230703",
"& c #240703",
"* c #200803",
"= c #220904",
"- c #230A04",
"; c #260804",
": c #240A04",
"> c #280905",
", c #290B05",
"< c #290C06",
"1 c #2B0C06",
"2 c #280E06",
"3 c #290E06",
"4 c #2C0D06",
"5 c #2F1008",
"6 c #2E1208",
"7 c #2F1208",
"8 c #301008",
"9 c #341309",
"0 c #321409",
"q c #36140A",
"w c #34160A",
"e c #39170B",
"r c #37180B",
"t c #3B180C",
"y c #3C1B0D",
"u c #3E1A0D",
"i c #3F1C0D",
"p c #3F1D0E",
"a c #421D0E",
"s c #441F0F",
"d c #452210",
"f c #4B2411",
"g c #492512",
"h c #4A2612",
"j c #4C2612",
"k c #4F2713",
"l c #502813",
"z c #542B15",
"x c #572F16",
"c c #582F16",
"v c #5B3017",
"b c #5D3218",
"n c #5E3419",
"m c #613519",
"M c #64371A",
"N c #66381B",
"B c #693B1C",
"V c #6B3C1D",
"C c #6F3F1E",
"Z c #724220",
"A c #734220",
"S c #744320",
"D c #764421",
"F c #774621",
"G c #794722",
"H c #7B4823",
"J c #7C4923",
/* pixels */
"JJJJJJJJHHJHJJJJJJJJJJJJJJJJJJJJGHHJJJHJJJJJJJJJJJJJJJJJJJJJ",
"JJJJJJHFAFHHJJJJHFAFGJJJJJGGSSSSGHHJJJHHAAHJJJJJHHAAHHJJJJJJ",
"JJJJJJFNzbCJJJJJGNzbCJJJJJFMzkkzNGHHJJJCmzMGJJHHJCbzMGJJJJJJ",
"JJJJJJSzqaNJJJJJFz0sMJJJJJSz9449zSHHJJJNs9zAJJJDJMs9zAJJJJJJ",
"JJJJSBva>qlmmmmmxa>ekmmmmmca>$$>avMmmmMk9>acmmmmmke>acVAJJJJ",
"JJJJBlt8;1quuuuue8;>9uuuuat8;&&;8ttattaq1>8etaaat94$8ukBHHJJ",
"JHFSvt$$$$$$$$$$&$$$;$$$$$$$$$$$$$$$$$$$&&#$$>1>&&$$&&tcAHHJ",
"JFNza8$$$$$$$$$$&&$$$$$$$$$$$$$$$$$$$$$$&&&$8sfe>$$$$&9szNHJ",
"JAz9>;&$$$$$$$$$$$$$$$$$$$;##$$$$$$$$$$$$$$$tvVf1$$$$$$>9cAH",
"JFbsq1;8tq1$$$$$$$$$$$$$19t8;&$$$$$$$8tq1$$$qkva>&$$$$1qscDJ",
"JGCMkq>avkq$$$$$$$$$$$$$9kvs>$$$$$$$>ackq;$$1qt8>$$$$$9fNCHH",
"JJJJmu4fVvt$$$$$$$$$$$$$tvVf1$$$$$$$1kVct#$#;#$$&$$$$#amHJJH",
"JJJJmu>efa7$$$$$$$$$#&$$8sfq>$$$$$$$1qfa8$$$%#%#$$$$$$amHJJJ",
"JJJJmu&>11;$$$$$$$$$&&$$;>1;;&$$$#$$;>1>$$$$#%#;$$&&$$tmJJJJ",
"JJJJmu$$$$$;8tuue8$##OO#;##OO&O$O##O###OO###%%%%$19t8$amJJJJ",
"JJJJmu$$$$$>avmmcu#OO OO  O OO  OO OO O OO OO%#%$9kcs>amJJJJ",
"HHGGvt$$;#;1fBAABd-             +-++         <8>&tcBf4azAGGJ",
"HGMka8$$#%%;tfkkd9O.          .O7dp2        <pfq>8afe>8azNGJ",
"HGzq>;$$#&$%;1>;-O            .-dVx0        9xVf1&>4>&>>9zDJ",
"HAbs91$$$$$$$$OO.              +yxh7        8kva1$&&&&49amDJ",
"HGCMfq$$$&$$$$#                O207-        -7q9&$$$&$9kMCFJ",
"JJJJma;>>1;$$$#O         +-+                ++%O$>>1>&tmJJJJ",
"JJJJmt1qfa8$#$$         1pd0+                %%%&8sfe>amJJJJ",
"JJJJma1fVct$#;OO        0xBd-               +%%O$tcVf4tMJJJJ",
"JJJJmu>avk9##;O         rnZh-               OO$$$amAk4amJJJJ",
"JJJJmu&8aq1;$#;O        rnZh-                #$$#amDk4tmJGJJ",
"JHGAcu>&>>;%$$O         0xVd-   . ++-+      O#$$$qcVf1tcAGHJ",
"JGMzs8>tfa5%$$$         6td0+   ..:yd0+     OO#$$8aft>8azNGJ",
"GFze>&1fBvt;%%O+        ++-+      0xVd-     O#&#$$>4>$$49zAH",
"HZk4&&>ablq;7tq:                ..7fxu.      $&$$$$$&&$$4lAG",
"JZl4$&>8qq4>ach6                ..-601O  .  OO$$$$$$$$$$4lDJ",
"JAk9>&&&%%;>fCx0             +++.   ..    O&>$$$$$$$$$>>9zAJ",
"JGMzs8&#$$$>efa>      ..     2td6+       +0dp6-%$$$$$$8acMHH",
"JJGAce&&$$$&>4&O      ..    +0xBd-       -dVvt%%$&$$$$tcCHHH",
"JJJJmu$$$$$$$$&      O:06-   7gxy-       -yxk8%%$1qt8>amJJHH",
"JJJJmu$$$$$$$&OO     +pxf7   -702         207;%%&qkca>tmJJJH",
"JJJJmu$$$$$$-$OO     -dBx0                  + %%$tcVf1tmJJJJ",
"JJJJmu$$$$$$$$$      O5dy2                  +%#%$8afe&amJJJJ",
"JJJJmu&&$$$$$$OO      O;++                  O ;#$>>1>&amJHHH",
"JGCMk9&&$$$$$$#                             O%;#$$&$$$qkNCHH",
"JSbsq1$$$$$$$&#                             O%#%&$$$$$19smAJ",
"JSz9;$$$$$$&>1&$           +--               O#>1>>&$$>>9zAJ",
"JGMzd8$$$$$>rfa>  O       +0dt1             O#>qfa8&$$8azNGJ",
"HGGFbq$$$$$1fVxq          -dVx9              #5fVct&$$tcAFHJ",
"JJJJmu$$$$$>avk5  O  O.   ;ucf8  O OO OO O OO#>scke&&&umJJJJ",
"JJJJmu$$$$$>8t01O$%O;O&$+;+7a9>&O##OO##O######&8t91&&&umJJJJ",
"JJJJmu$>4>&&$$-$$$$$$$>4>$;$$$$&>1>>$$$$&&>1>>#&&#>>>&tmJJJJ",
"JJJJma>efs4$$$$-$$$$$;qks7$$$$$>efa8$$$$$>efs8$$&8sfe>aMJJJJ",
"JJJJma>fVvt#&$;$$$$$$1fVct&&$$$1fVct&$$$$1fVct$$$tvVf4aMHJJJ",
"JGCMke>avk9;$$1qt8$$$1sck9&&$$$>ackq&&$$$1ackq$$$qkca>9kMCFJ",
"JSbs91>8t91$$$9kca>$$$8t91$$$$$>8e91$$$$$$8tq1&$$19t8$19smAJ",
"JSz9>$&&$$&$$$tvVf1;$$$&$$$$$$$$&$&&$$$$$$$$;$$$$$&$$$>>9zAJ",
"GGNzs8&&$$$$$$8afe>&$$$$$$$$$$$$$$$$$$$$$$$$$$#$$$$$$$8azMHH",
"JJGSbt$$$$$$$#;>1>$&$$$$$$$$$$$&$$$#$$$$$;$$$#;;$$$$$$tcAHHH",
"JJJJBke8>19aataue8>19taaaut8$$&>8ttaata91>8ttaata84>8tkVJJJJ",
"JJJJSBca>9kmmmmmca>qkmmmmmca1$&>acmmmmmk9>acmmmmMkq>acVDJJJJ",
"JJJJJJSz9sMJJJJJSz9sMJJJJJAz9449zSJJJJJMs9zSJJJJHMs9zAHJJJJJ",
"JJJJJJGMzbCJJJJJHNzbCJJJJJHNzkkzNDJJJJJCvzMJJJJJHCMzMHHHJJJJ",
"JJJJJJGGSSGJJJJJHHSSHHJJJJHFAAAADJJJJJJGSAGJJJJJHHCDHHJJJJJJ",
"JJJJJJJJJJJJJJJJHHHHJJJHJJJHJJJJJJJJJJJJJJJJJJJJHHHHJJJJJJJJ"
};
